# xmcd CD database file
# Copyright (C) 1997 Ti Kan
# 
# Track frame offsets:
#     183
#     13443
#     32015
#     47475
#     63278
#     80128
#     93953
#     118473
#     136093
#     152953
# 
# Disc length: 2318 seconds
# 
# Revision: 1
# Processed by: cddbd v1.4b41PL1 Copyright (c) Steve Scherf et al.
# Submitted via: DiscPlay 4.0.4
# 
DISCID=85090c0a
DTITLE=Steve Miller Band - Live!
DYEAR=1900
DGENRE=
TTITLE0=Gangster of Love
TTITLE1=Rock 'N Me
TTITLE2=Living In the U.S.A.
TTITLE3=Fly Like An Eagle
TTITLE4=Jungle Love
TTITLE5=The Joker
TTITLE6=Mercury Blues
TTITLE7=Take the Money and Run
TTITLE8=Abracadabra
TTITLE9=Jet Airliner
EXTD=
EXTT0=
EXTT1=
EXTT2=
EXTT3=
EXTT4=
EXTT5=
EXTT6=
EXTT7=
EXTT8=
EXTT9=
PLAYORDER=
